<?xml version="1.0" standalone="no"?>
<!DOCTYPE svg PUBLIC "-//W3C//DTD SVG 20010904//EN"
 "http://www.w3.org/TR/2001/REC-SVG-20010904/DTD/svg10.dtd">
<svg version="1.0" xmlns="http://www.w3.org/2000/svg"
 width="393.000000pt" height="395.000000pt" viewBox="0 0 393.000000 395.000000"
 preserveAspectRatio="xMidYMid meet">

<g transform="translate(0.000000,395.000000) scale(0.100000,-0.100000)"
fill="#000000" stroke="none">
<path d="M1695 3914 c-1166 -158 -1928 -1308 -1625 -2450 122 -459 412 -860
815 -1127 321 -212 679 -318 1075 -318 322 0 595 63 872 202 475 238 829 650
991 1154 177 549 103 1143 -205 1639 -304 490 -827 825 -1405 901 -138 18
-382 18 -518 -1z m-416 -1374 c60 -17 109 -59 137 -117 22 -45 28 -73 32 -154
l5 -99 -92 0 -91 0 0 84 c0 67 -4 88 -19 107 -26 32 -92 33 -123 1 l-23 -23 0
-370 0 -371 29 -25 c24 -20 36 -24 65 -19 64 10 71 30 71 187 l0 139 -40 0
-40 0 0 80 0 80 131 0 131 0 -4 -232 c-3 -231 -3 -233 -31 -289 -45 -92 -114
-129 -242 -129 -124 0 -208 58 -241 166 -20 68 -20 760 0 828 33 108 117 166
241 166 39 0 85 -4 104 -10z m414 -47 c3 -21 20 -204 39 -408 18 -203 34 -359
36 -345 2 14 20 196 40 405 l37 380 101 3 101 3 32 -333 c17 -183 35 -366 38
-406 3 -40 7 -71 9 -69 3 2 74 765 74 793 0 11 18 14 80 14 66 0 80 -3 80 -16
0 -18 -97 -985 -106 -1056 l-6 -48 -114 0 c-63 0 -114 4 -114 9 0 12 -70 673
-73 691 -2 8 -15 -102 -31 -245 -15 -143 -32 -304 -38 -357 l-11 -98 -121 0
-121 0 -54 538 c-29 295 -55 547 -58 560 -5 22 -3 22 85 22 l89 0 6 -37z m937
-193 l0 -230 90 0 90 0 0 230 0 230 90 0 90 0 0 -560 0 -560 -90 0 -90 0 0
250 0 250 -90 0 -90 0 0 -250 0 -250 -90 0 -90 0 0 560 0 560 90 0 90 0 0
-230z"/>
</g>
</svg>
