<svg width="120" height="104" viewBox="0 0 120 104" fill="none" xmlns="http://www.w3.org/2000/svg">
<g clip-path="url(#clip0_87_4)">
<rect width="120" height="104" fill="white"/>
<path d="M23.68 48.456C16.4267 48.456 10.9227 46.4933 7.168 42.568C4.096 39.496 2.56 35.5707 2.56 30.792C2.56 26.696 3.79733 22.7707 6.272 19.016C7.46667 17.0533 8.96 15.3467 10.752 13.896C12.544 12.36 14.5493 11.0373 16.768 9.92799C20.352 8.136 24.1493 6.77066 28.16 5.83199C32.256 4.89333 36.5653 4.424 41.088 4.424C44.3307 4.424 48.2133 4.72266 52.736 5.31999C57.2587 5.91733 62.4213 6.81333 68.224 8.008C75.3067 9.37333 81.28 10.4827 86.144 11.336C91.008 12.104 94.6773 12.488 97.152 12.488C98.6027 12.488 100.053 12.36 101.504 12.104C102.955 11.848 104.363 11.5493 105.728 11.208C109.909 10.0987 112.256 8.47733 112.768 6.34399C113.024 5.49066 113.451 5.064 114.048 5.064C114.56 5.064 114.816 5.31999 114.816 5.83199C114.816 6.17333 114.688 6.55733 114.432 6.98399C112.64 10.9093 109.013 13.6827 103.552 15.304C100.224 16.328 96.6827 16.84 92.928 16.84C91.5627 16.84 88.704 16.584 84.352 16.072C80 15.56 74.1547 14.7493 66.816 13.64C61.7813 12.7867 57.2587 12.1893 53.248 11.848C49.3227 11.4213 45.9947 11.208 43.264 11.208C33.792 11.208 26.0267 13.2133 19.968 17.224C18.3467 18.3333 16.8107 19.5707 15.36 20.936C13.9947 22.3013 12.7573 23.8373 11.648 25.544C9.51467 28.9573 8.448 32.2 8.448 35.272C8.448 38.6853 9.64267 41.3733 12.032 43.336C14.5067 45.2133 18.176 46.152 23.04 46.152C29.2693 46.152 35.8827 43.6773 42.88 38.728C45.8667 36.68 48.5547 34.3333 50.944 31.688C53.3333 29.0427 55.4667 26.0133 57.344 22.6C57.6853 22.0027 58.24 21.704 59.008 21.704C59.776 21.704 60.032 22.0453 59.776 22.728C56.448 30.4933 51.6693 36.6373 45.44 41.16C42.112 43.5493 38.656 45.384 35.072 46.664C31.488 47.8587 27.6907 48.456 23.68 48.456ZM16.768 98.632C12.5013 98.632 8.87467 97.608 5.888 95.56C3.24267 93.768 1.92 91.2507 1.92 88.008C1.92 85.704 2.688 83.7413 4.224 82.12C5.93067 80.1573 8.02133 79.176 10.496 79.176C12.1173 79.176 13.5253 79.7733 14.72 80.968C15.6587 81.992 16.128 83.272 16.128 84.808C16.128 86.856 15.4027 88.52 13.952 89.8C12.5867 91.08 11.008 91.72 9.216 91.72C7.68 91.72 6.31467 91.1227 5.12 89.928C5.376 91.72 6.528 93 8.576 93.768C9.856 94.28 11.2213 94.536 12.672 94.536C15.232 94.536 17.664 94.1093 19.968 93.256C22.272 92.4027 24.4053 91.208 26.368 89.672C29.6107 87.1973 32.9387 83.3573 36.352 78.152C38.4 75.08 40.4907 71.7093 42.624 68.04C44.8427 64.3707 47.0613 60.4027 49.28 56.136C41.6853 57.16 35.2 58.568 29.824 60.36C21.632 63.176 17.536 67.1013 17.536 72.136C17.536 75.2933 18.8587 77.5547 21.504 78.92C21.9307 79.176 22.016 79.56 21.76 80.072C21.504 80.4987 21.1627 80.6267 20.736 80.456C18.944 79.5173 17.3227 77.9813 15.872 75.848C14.5067 73.7147 13.824 71.496 13.824 69.192C13.824 63.816 17.5787 59.848 25.088 57.288C30.464 55.4107 39.04 54.088 50.816 53.32L56.96 41.416C60.9707 33.5653 65.3653 27.72 70.144 23.88C75.008 20.04 80.0427 18.12 85.248 18.12C86.6987 18.12 88.192 18.248 89.728 18.504C90.3253 18.6747 90.624 18.888 90.624 19.144C90.624 19.5707 90.368 19.784 89.856 19.784C89.4293 19.784 88.96 19.7413 88.448 19.656C87.936 19.5707 87.4667 19.528 87.04 19.528C78.4213 19.528 71.3813 26.3547 65.92 40.008C65.3227 41.3733 64.5973 43.1227 63.744 45.256C62.976 47.304 62.0373 49.736 60.928 52.552C64.4267 52.296 67.2427 52.04 69.376 51.784C70.7413 48.8827 73.5147 46.3227 77.696 44.104C78.8907 43.4213 80.0427 43.08 81.152 43.08C83.2853 43.08 84.352 44.0187 84.352 45.896C84.352 48.968 81.408 51.4 75.52 53.192C74.3253 53.448 72.8747 53.704 71.168 53.96C70.3147 55.6667 69.6747 57.416 69.248 59.208C68.9067 61 68.6933 62.8773 68.608 64.84C68.608 65.352 68.352 65.608 67.84 65.608C67.328 65.5227 67.0293 65.224 66.944 64.712C66.8587 62.7493 66.944 60.872 67.2 59.08C67.5413 57.288 68.0107 55.6667 68.608 54.216C67.84 54.3013 64.9387 54.5573 59.904 54.984C52.48 73.416 43.8613 86.1307 34.048 93.128C28.8427 96.7973 23.0827 98.632 16.768 98.632Z" fill="black"/>
</g>
<defs>
<clipPath id="clip0_87_4">
<rect width="120" height="104" fill="white"/>
</clipPath>
</defs>
</svg>
