<svg width="500" height="373" viewBox="0 0 500 373" fill="none" xmlns="http://www.w3.org/2000/svg">
<g clip-path="url(#clip0_93_5)">
<path d="M500 327.45H0V327.7H500V327.45Z" fill="#EBEBEB"/>
<path d="M449.9 343.54H428.22V343.79H449.9V343.54Z" fill="#EBEBEB"/>
<path d="M344.67 338.35H310.56V338.6H344.67V338.35Z" fill="#EBEBEB"/>
<path d="M441.12 334.26H396.59V334.51H441.12V334.26Z" fill="#EBEBEB"/>
<path d="M173.02 339.3H161.88V339.55H173.02V339.3Z" fill="#EBEBEB"/>
<path d="M152.97 339.3H114.58V339.55H152.97V339.3Z" fill="#EBEBEB"/>
<path d="M94.01 335.08H66.31V335.33H94.01V335.08Z" fill="#EBEBEB"/>
<path d="M237.01 282.85H43.91C40.76 282.85 38.2 280.29 38.2 277.14V5.71C38.2 2.56 40.76 0 43.91 0H237.01C240.16 0 242.72 2.56 242.72 5.71V277.14C242.72 280.29 240.16 282.85 237.01 282.85ZM43.91 0.25C40.9 0.25 38.45 2.7 38.45 5.71V277.14C38.45 280.15 40.9 282.6 43.91 282.6H237.01C240.02 282.6 242.47 280.15 242.47 277.14V5.71C242.47 2.7 240.02 0.25 237.01 0.25H43.91Z" fill="#EBEBEB"/>
<path d="M453.31 282.85H260.21C257.06 282.85 254.5 280.29 254.5 277.14V5.71C254.5 2.56 257.06 0 260.21 0H453.31C456.46 0 459.02 2.56 459.02 5.71V277.14C459.02 280.29 456.46 282.85 453.31 282.85ZM260.21 0.25C257.2 0.25 254.75 2.7 254.75 5.71V277.14C254.75 280.15 257.2 282.6 260.21 282.6H453.31C456.32 282.6 458.77 280.15 458.77 277.14V5.71C458.77 2.7 456.32 0.25 453.31 0.25H260.21Z" fill="#EBEBEB"/>
<path d="M216.07 145.93L216.52 132.79L208.45 130.15C208.12 125.66 207.37 121.23 206.3 116.95L213.14 111.91L208.5 99.5696L200.04 100.25C198.02 96.2596 195.65 92.4597 193 88.8997L197.38 81.5896L188.37 71.9797L180.81 75.8496C177.4 72.9596 173.81 70.3296 169.97 68.0196L171.19 59.6297L159.19 54.1796L153.69 60.6196C149.5 59.2596 145.16 58.2396 140.67 57.5696L138.63 49.3396L125.45 48.8896L122.85 56.9596C118.32 57.3296 113.93 58.0396 109.65 59.1096L104.57 52.3097L92.23 56.9196L92.91 65.3796C88.92 67.4296 85.12 69.7996 81.56 72.4496L74.28 68.0696L64.63 77.0396L68.5 84.6396C65.61 88.0096 62.98 91.6397 60.7 95.4797L52.31 94.2197L46.83 106.22L53.31 111.72C51.95 115.91 50.9 120.28 50.26 124.74L42 126.82L41.55 139.96L49.65 142.6C49.98 147.12 50.73 151.52 51.8 155.79L44.96 160.83L49.6 173.17L58.06 172.49C60.08 176.48 62.45 180.28 65.1 183.84L60.72 191.15L69.73 200.76L77.29 196.89C80.66 199.78 84.29 202.41 88.13 204.73L86.87 213.12L98.87 218.57L104.4 212.13C108.59 213.49 112.93 214.51 117.42 215.18L119.46 223.41L132.64 223.86L135.24 215.79C139.76 215.42 144.16 214.71 148.43 213.64L153.47 220.44L165.81 215.83L165.16 207.37C169.15 205.32 172.91 202.95 176.51 200.29L183.79 204.67L193.44 195.7L189.57 188.1C192.46 184.73 195.09 181.1 197.37 177.26L205.76 178.52L211.24 166.52L204.76 161.02C206.12 156.83 207.17 152.49 207.81 148L216.04 145.92L216.07 145.93ZM127.27 188.5C98.49 187.51 75.96 163.38 76.94 134.6C77.93 105.79 102.06 83.2496 130.84 84.2396C159.62 85.2296 182.15 109.36 181.17 138.17C180.18 166.95 156.05 189.48 127.27 188.5Z" fill="#EBEBEB"/>
<path d="M440.96 102.469L444.27 99.3793L442.95 96.7693C443.96 95.5893 444.86 94.3293 445.64 93.0293L448.54 93.4693L450.42 89.3293L448.19 87.4293C448.67 85.9693 449.02 84.4593 449.24 82.9493L452.09 82.2393L452.24 77.6993L449.45 76.7993C449.33 75.2593 449.09 73.7493 448.72 72.2493L451.07 70.4993L449.47 66.2493L446.56 66.4793C445.87 65.1293 445.06 63.8193 444.13 62.5593L445.64 60.0593L442.54 56.7393L439.94 58.0693C438.75 57.0593 437.5 56.1593 436.2 55.3793L436.62 52.4793L432.49 50.5893L430.59 52.8193C429.12 52.3493 427.61 51.9993 426.1 51.7793L425.39 48.9393L420.85 48.7793L419.94 51.5793C418.41 51.6993 416.89 51.9393 415.39 52.3193L413.65 49.9693L409.39 51.5593L409.63 54.4793C408.28 55.1693 406.95 55.9793 405.71 56.9093L403.19 55.3993L399.88 58.4893L401.21 61.1093C400.19 62.2893 399.3 63.5493 398.52 64.8493L395.62 64.4093L393.74 68.5493L395.97 70.4493C395.49 71.9093 395.14 73.4193 394.92 74.9293L392.07 75.6393L391.92 80.1793L394.71 81.0793C394.83 82.6093 395.07 84.1293 395.44 85.6293L393.09 87.3693L394.69 91.6193L397.61 91.3993C398.3 92.7493 399.11 94.0593 400.04 95.3193L398.53 97.8193L401.63 101.139L404.23 99.8093C405.42 100.819 406.67 101.719 407.97 102.499L407.54 105.389L411.67 107.279L413.57 105.059C415.04 105.529 416.54 105.869 418.06 106.099L418.77 108.939L423.31 109.099L424.22 106.299C425.75 106.179 427.27 105.939 428.77 105.559L430.51 107.909L434.77 106.319L434.53 103.399C435.88 102.709 437.2 101.909 438.45 100.969L440.96 102.469ZM417.34 83.3393C414.9 80.7293 415.04 76.6293 417.65 74.1993C420.26 71.7593 424.36 71.8993 426.8 74.5093C429.24 77.1193 429.1 81.2193 426.48 83.6593C423.87 86.0993 419.77 85.9593 417.34 83.3493V83.3393Z" fill="#EBEBEB"/>
<path d="M319.99 237.38L309.65 230.24V230.219C308.63 226.459 307.22 222.849 305.49 219.449L308.14 209.049L293.14 192.99L282.58 194.919C279.31 192.969 275.8 191.309 272.13 190.039C272.13 190.039 272.11 190.039 272.1 190.039L265.68 179.229L243.72 178.479L236.58 188.82C236.58 188.82 236.55 188.82 236.54 188.82C232.79 189.84 229.17 191.249 225.78 192.969L215.39 190.32L199.33 205.32L201.26 215.859C199.27 219.169 197.65 222.68 196.38 226.35L185.57 232.77L184.82 254.74L195.17 261.89C196.19 265.67 197.56 269.279 199.32 272.709L196.68 283.079L211.68 299.14L222.17 297.219C225.48 299.179 229 300.829 232.72 302.109L239.13 312.899L261.09 313.649L268.23 303.32C272.03 302.3 275.65 300.89 279.08 299.16L289.43 301.799L305.49 286.799L303.56 276.26C305.55 272.95 307.17 269.44 308.44 265.76L319.25 259.339L320 237.369L319.99 237.38ZM251.54 270.769C237.89 270.299 227.22 258.839 227.69 245.219C228.16 231.569 239.58 220.899 253.24 221.369C266.89 221.839 277.56 233.259 277.09 246.919C276.62 260.529 265.2 271.239 251.54 270.769Z" fill="#EBEBEB"/>
<path d="M343.55 175C343.55 175 343.5 175 343.48 175L326.16 174.41C325.44 174.39 324.78 174 324.42 173.38L319.76 165.53C317.28 164.63 314.84 163.5 312.48 162.15L304.97 163.52C304.26 163.65 303.54 163.41 303.05 162.88L291.22 150.22C290.73 149.69 290.54 148.95 290.72 148.26L292.61 140.85C291.46 138.5 290.5 136 289.75 133.38L282.22 128.18C281.63 127.77 281.28 127.09 281.31 126.37L281.9 109.05C281.92 108.33 282.31 107.67 282.93 107.31L290.8 102.64C291.73 100.09 292.86 97.6498 294.17 95.3898L292.79 87.8598C292.66 87.1498 292.9 86.4298 293.43 85.9398L306.1 74.1098C306.63 73.6198 307.37 73.4298 308.06 73.6098L315.49 75.5098C317.9 74.3398 320.39 73.3798 322.94 72.6398L328.14 65.1098C328.55 64.5198 329.22 64.1498 329.95 64.1998L347.27 64.7898C347.99 64.8098 348.65 65.1998 349.01 65.8198L353.68 73.6898C356.16 74.5998 358.59 75.7298 360.91 77.0598L368.46 75.6798C369.17 75.5498 369.89 75.7898 370.38 76.3198L382.21 88.9898C382.7 89.5198 382.89 90.2598 382.71 90.9498L380.81 98.3898C381.98 100.8 382.94 103.29 383.68 105.84L391.2 111.04C391.79 111.45 392.13 112.13 392.11 112.85L391.52 130.17C391.5 130.89 391.11 131.55 390.49 131.91L382.62 136.58C381.69 139.13 380.56 141.56 379.25 143.82L380.63 151.36C380.76 152.07 380.52 152.79 379.99 153.28L367.33 165.1C366.8 165.59 366.07 165.78 365.37 165.6L357.97 163.71C355.53 164.89 353.02 165.85 350.48 166.58L345.29 174.1C344.89 174.67 344.25 175.01 343.55 175.01V175ZM327.46 170.22L342.47 170.73L347.44 163.53C347.72 163.12 348.15 162.82 348.63 162.69C351.39 161.95 354.14 160.9 356.78 159.56C356.78 159.56 356.78 159.56 356.79 159.56C357.23 159.34 357.75 159.28 358.25 159.41L365.29 161.2L376.27 150.95L374.96 143.78C374.87 143.27 374.96 142.75 375.23 142.31C376.68 139.91 377.91 137.27 378.88 134.48C379.04 133.98 379.38 133.57 379.82 133.31L387.34 128.84L387.85 113.83L380.65 108.86C380.27 108.6 379.99 108.22 379.85 107.79C379.83 107.74 379.82 107.68 379.8 107.62C379.05 104.86 378 102.15 376.69 99.5698C376.46 99.1098 376.4 98.5898 376.53 98.0898L378.33 91.0098L368.08 80.0298L360.89 81.3498C360.39 81.4398 359.87 81.3498 359.43 81.0898C356.93 79.5998 354.29 78.3698 351.58 77.4198C351.43 77.3698 351.27 77.2998 351.14 77.2098C350.85 77.0298 350.61 76.7798 350.43 76.4898L345.96 68.9598L330.95 68.4498L325.98 75.6498C325.68 76.0798 325.24 76.3798 324.74 76.4998C321.96 77.2598 319.26 78.2998 316.69 79.6098C316.23 79.8398 315.71 79.8998 315.21 79.7698L308.13 77.9698L297.15 88.2198L298.46 95.3898C298.54 95.8398 298.48 96.3098 298.27 96.7098C298.24 96.7698 298.21 96.8198 298.17 96.8798C296.72 99.2898 295.49 101.94 294.52 104.74C294.36 105.21 294.03 105.61 293.6 105.86L286.07 110.33L285.56 125.34L292.77 130.32C293.18 130.6 293.48 131.02 293.61 131.51C294.39 134.39 295.43 137.12 296.72 139.63C296.79 139.77 296.85 139.93 296.89 140.08C296.97 140.42 296.97 140.77 296.89 141.11L295.09 148.16L305.34 159.14L312.48 157.83C312.98 157.74 313.5 157.83 313.93 158.09C316.48 159.59 319.13 160.83 321.82 161.76C322.31 161.91 322.73 162.24 322.99 162.69L327.45 170.21L327.46 170.22ZM336.73 151.26C336.36 151.26 335.99 151.26 335.62 151.24C318.17 150.64 304.47 135.96 305.06 118.52C305.66 101.07 320.36 87.3698 337.78 87.9598C355.23 88.5598 368.93 103.24 368.34 120.68C368.05 129.12 364.49 136.95 358.31 142.72C352.4 148.25 344.77 151.25 336.72 151.25L336.73 151.26ZM336.69 92.1698C321.99 92.1698 309.79 103.87 309.28 118.67C308.76 133.79 320.64 146.51 335.76 147.03C343.09 147.28 350.07 144.66 355.43 139.65C360.78 134.65 363.87 127.86 364.12 120.55C364.64 105.43 352.76 92.7098 337.64 92.1898C337.32 92.1798 337 92.1698 336.69 92.1698Z" fill="#EBEBEB"/>
<path d="M383.44 50.37L376.27 48.44L374.34 41.27L377.15 38.46L380.11 44.6L386.25 47.56L383.44 50.37Z" fill="#E0E0E0"/>
<path d="M383.88 45.5695C385.19 44.2595 385.19 42.1295 383.88 40.8295C382.57 39.5195 380.45 39.5295 379.15 40.8295L382.72 35.4795L387.51 37.8995L388.56 42.9295L383.89 45.5695H383.88Z" fill="#E0E0E0"/>
<path d="M376.58 39.0295L381.84 33.7695L389.01 35.6995L390.94 42.8695L385.68 48.1295L378.51 46.1995L376.58 39.0295ZM386.13 43.3295C387.44 42.0195 387.44 39.8895 386.13 38.5895C384.82 37.2795 382.7 37.2895 381.4 38.5895C380.09 39.8995 380.09 42.0095 381.4 43.3095C382.71 44.6195 384.83 44.6295 386.13 43.3095V43.3295Z" fill="#F0F0F0"/>
<path d="M90.22 241.759L94.07 240.719L95.1 236.869L93.6 235.369L92.01 238.659L88.71 240.249L90.22 241.759Z" fill="#E0E0E0"/>
<path d="M89.98 239.18C89.28 238.48 89.28 237.34 89.98 236.63C90.68 235.92 91.82 235.93 92.52 236.63L90.61 233.76L88.04 235.06L87.48 237.76L89.98 239.18Z" fill="#E0E0E0"/>
<path d="M93.9 235.67L91.08 232.85L87.23 233.88L86.2 237.73L89.02 240.55L92.87 239.52L93.9 235.67ZM88.78 237.98C88.08 237.28 88.08 236.14 88.78 235.43C89.48 234.72 90.62 234.73 91.32 235.43C92.02 236.13 92.02 237.26 91.32 237.97C90.62 238.68 89.48 238.68 88.78 237.97V237.98Z" fill="#F0F0F0"/>
<path d="M76.36 30.7099L79.55 33.8999C80.38 34.7299 81.74 34.7299 82.57 33.8999C83.4 33.0699 83.4 31.7099 82.57 30.8799L79.38 27.6899C78.55 26.8599 77.19 26.8599 76.36 27.6899C75.53 28.5199 75.53 29.8799 76.36 30.7099Z" fill="#F0F0F0"/>
<path d="M74.11 22.7498C76.57 21.8698 79.24 23.0198 80.07 25.3298C80.9 27.6398 79.58 30.2298 77.12 31.1198C74.66 31.9998 71.99 30.8498 71.16 28.5398C70.33 26.2298 71.65 23.6398 74.11 22.7498Z" fill="#E0E0E0"/>
<path d="M70.6255 28.0017L71.0887 29.291L80.594 25.8764L80.1308 24.5871L70.6255 28.0017Z" fill="#F0F0F0"/>
<path d="M250 372.61C357.082 372.61 443.89 367.542 443.89 361.29C443.89 355.038 357.082 349.97 250 349.97C142.917 349.97 56.11 355.038 56.11 361.29C56.11 367.542 142.917 372.61 250 372.61Z" fill="#F5F5F5"/>
<path d="M86.72 65.6895C85.72 61.2895 86.17 57.5795 88.06 54.5695C89.96 51.5595 93.09 49.5595 97.47 48.5595C101.96 47.5395 105.69 47.9595 108.67 49.8195C111.65 51.6795 113.63 54.7795 114.62 59.1195C115.34 62.2695 115.39 64.9795 114.79 67.2395C114.19 69.4995 113.01 71.4195 111.26 72.9995C109.51 74.5795 107.14 75.7095 104.14 76.3895C101.1 77.0795 98.47 77.1695 96.26 76.6495C94.05 76.1295 92.08 74.9695 90.37 73.1495C88.65 71.3295 87.44 68.8494 86.72 65.6994V65.6895ZM95.06 63.8295C95.68 66.5495 96.63 68.3995 97.91 69.3495C99.19 70.3095 100.7 70.5895 102.45 70.1895C104.24 69.7795 105.49 68.8895 106.21 67.4995C106.93 66.1095 106.94 63.9095 106.26 60.8895C105.68 58.3495 104.75 56.6095 103.46 55.6695C102.17 54.7295 100.65 54.4595 98.89 54.8595C97.21 55.2395 95.99 56.1395 95.25 57.5595C94.5 58.9795 94.44 61.0695 95.07 63.8095L95.06 63.8295Z" fill="#263238"/>
<path d="M118.59 62.3893C117.91 59.4093 118.36 56.7193 119.93 54.3293C121.5 51.9393 124 50.3593 127.42 49.5793C131.33 48.6893 134.55 49.1493 137.06 50.9693C139.08 52.4293 140.4 54.4993 141.01 57.1793C141.69 60.1893 141.26 62.8793 139.7 65.2493C138.14 67.6193 135.6 69.2093 132.08 70.0093C128.94 70.7193 126.22 70.5093 123.92 69.3493C121.09 67.9193 119.31 65.5993 118.58 62.3993L118.59 62.3893ZM126.09 60.6693C126.49 62.4093 127.13 63.6193 128.03 64.2893C128.92 64.9593 129.91 65.1793 130.97 64.9393C132.05 64.6893 132.84 64.0793 133.35 63.0993C133.86 62.1193 133.9 60.7193 133.49 58.9093C133.1 57.2193 132.47 56.0293 131.58 55.3693C130.69 54.6993 129.73 54.4793 128.7 54.7193C127.61 54.9693 126.8 55.5893 126.28 56.5993C125.76 57.5993 125.69 58.9593 126.09 60.6793V60.6693Z" fill="#263238"/>
<path d="M148.58 73.6095L142.45 46.6295L149.46 45.0395L150.12 47.9295C150.81 46.4995 151.52 45.4695 152.23 44.8595C153.19 44.0395 154.33 43.4695 155.66 43.1695C158.27 42.5795 160.52 43.1195 162.4 44.7895C164.28 46.4595 165.56 48.7695 166.23 51.7195C166.97 54.9695 166.75 57.6295 165.59 59.6895C164.42 61.7595 162.65 63.0595 160.27 63.5995C159.12 63.8595 158.02 63.8995 156.98 63.7295C155.94 63.5495 154.96 63.1595 154.03 62.5595L156.15 71.8895L148.59 73.6095H148.58ZM152.19 54.7495C152.54 56.2995 153.13 57.3695 153.95 57.9695C154.77 58.5695 155.68 58.7595 156.67 58.5295C157.54 58.3295 158.19 57.8095 158.62 56.9595C159.05 56.1095 159.06 54.8195 158.67 53.1095C158.31 51.5295 157.74 50.4395 156.96 49.8295C156.18 49.2295 155.35 49.0295 154.46 49.2295C153.5 49.4495 152.79 49.9995 152.32 50.8995C151.85 51.7895 151.81 53.0795 152.19 54.7595V54.7495Z" fill="#263238"/>
<path d="M169.43 55.3495L176.7 52.9595C177.21 53.7695 177.78 54.3095 178.42 54.5595C179.06 54.8095 179.84 54.8395 180.76 54.6295C181.77 54.3995 182.5 54.0095 182.95 53.4595C183.31 53.0395 183.43 52.5995 183.32 52.1195C183.2 51.5795 182.82 51.2295 182.19 51.0595C181.74 50.9395 180.61 50.9295 178.79 51.0195C176.09 51.1595 174.18 51.1495 173.08 50.9895C171.98 50.8295 170.98 50.3695 170.08 49.6095C169.18 48.8495 168.59 47.8795 168.33 46.6995C168.04 45.4095 168.16 44.2195 168.7 43.1195C169.24 42.0195 170.11 41.0895 171.32 40.3295C172.53 39.5695 174.24 38.9395 176.44 38.4395C178.77 37.9095 180.53 37.6995 181.72 37.7995C182.91 37.8995 183.96 38.2495 184.87 38.8195C185.78 39.3995 186.63 40.2695 187.41 41.4395L180.47 43.7495C180.14 43.1695 179.73 42.7795 179.24 42.5795C178.56 42.3195 177.81 42.2895 176.97 42.4795C176.12 42.6695 175.54 42.9595 175.22 43.3495C174.9 43.7395 174.79 44.1495 174.89 44.5795C175 45.0595 175.33 45.3595 175.87 45.4995C176.42 45.6295 177.53 45.6095 179.22 45.4295C181.77 45.1495 183.72 45.1195 185.04 45.3395C186.37 45.5695 187.46 46.0695 188.32 46.8595C189.18 47.6495 189.73 48.5995 189.98 49.7095C190.24 50.8395 190.14 52.0095 189.71 53.2295C189.27 54.4495 188.39 55.5395 187.07 56.5095C185.75 57.4695 183.82 58.2395 181.3 58.8195C177.73 59.6295 175.07 59.6995 173.33 59.0295C171.58 58.3595 170.28 57.1295 169.43 55.3495Z" fill="#263238"/>
<path d="M193.85 30.6096L202.06 30.5596L202.1 36.8596L200.59 49.5296L195.51 49.5596L193.89 36.9096L193.85 30.6096ZM194.25 51.4996L201.91 51.4596L201.95 58.2296L194.29 58.2696L194.25 51.4996Z" fill="#263238"/>
<path d="M128.68 116.63C128.62 116.63 128.56 116.62 128.5 116.6C124 114.86 121.31 113.15 119.91 111.11C118.89 111.31 117.76 111.18 116.68 110.67C115.63 110.17 114.62 109.3 113.9 108.05C113.22 108.57 112.39 108.71 111.47 108.43C110.45 108.11 109.4 107.26 108.52 106.02C107.96 106.42 107.39 106.48 106.97 106.45C104 106.21 99.97 100.29 99.68 93.9801C99.67 93.7001 99.88 93.4701 100.16 93.4601C100.43 93.4401 100.67 93.6601 100.68 93.9401C100.95 99.9301 104.79 105.27 107.05 105.45C107.42 105.49 107.72 105.37 107.98 105.17C106.62 102.79 105.92 99.3901 106.96 95.7601C107.82 92.7601 108.58 91.5801 109.49 91.8001C111.21 92.2301 110.99 98.7701 110.07 103.09C109.86 104.07 109.56 104.77 109.22 105.27C110.01 106.44 110.94 107.22 111.76 107.48C112.49 107.71 113.03 107.52 113.43 107.13C112.64 105.19 112.48 102.56 113.55 99.1901C114.95 94.7601 115.52 94.6401 115.86 94.5701C116.1 94.5201 116.34 94.6001 116.5 94.7901C117.42 95.8301 116.32 102.71 115.16 106.11C115.01 106.55 114.82 106.94 114.6 107.27C115.22 108.49 116.14 109.32 117.09 109.77C117.86 110.14 118.65 110.27 119.36 110.2C119.27 110.01 119.19 109.82 119.12 109.62C118.33 107.47 118.71 104.99 120.3 102.04C121.36 100.08 122.22 99.1701 123.01 99.1701C123.25 99.1701 123.68 99.2601 124 99.8301C124.87 101.44 124.24 106.75 122.52 109.38C122.11 110 121.55 110.47 120.9 110.78C122.24 112.54 124.78 114.09 128.85 115.67C129.11 115.77 129.24 116.06 129.14 116.32C129.06 116.52 128.87 116.64 128.67 116.64L128.68 116.63ZM123.03 100.16C123.03 100.16 122.46 100.16 121.2 102.51C119.75 105.19 119.39 107.4 120.07 109.27C120.15 109.5 120.25 109.72 120.37 109.94C120.9 109.71 121.36 109.34 121.69 108.84C123.09 106.7 123.76 102.3 123.24 100.58C123.13 100.23 123.02 100.17 123.02 100.17L123.03 100.16ZM115.86 95.9501C115.6 96.4401 115.17 97.4301 114.52 99.4801C113.66 102.19 113.66 104.36 114.14 106.03C114.17 105.95 114.2 105.86 114.23 105.78C115.41 102.34 115.98 97.6101 115.86 95.9501ZM109.27 92.8001C109.1 92.9601 108.62 93.5901 107.92 96.0201C107 99.2301 107.57 102.16 108.65 104.27C108.86 103.84 109 103.34 109.1 102.87C110.14 97.9601 109.84 93.5201 109.27 92.8101V92.8001Z" fill="#263238"/>
<path d="M166.7 169.041C165.18 169.041 163.57 168.691 162.14 167.851C161.9 167.711 161.82 167.401 161.96 167.171C162.1 166.931 162.41 166.851 162.64 166.991C166.21 169.081 170.82 167.621 171.77 166.101C171.88 165.921 171.98 165.691 171.92 165.431C170.51 165.581 168.77 165.211 166.79 163.961C164.25 162.371 164.05 161.901 164.06 161.521C164.06 161.301 164.2 161.101 164.4 161.001C165.4 160.501 169.91 162.571 171.79 163.811C172.04 163.971 172.24 164.151 172.41 164.331C173.24 164.131 173.89 163.701 174.31 163.181C174.6 162.831 174.8 162.441 174.9 162.061C174.83 162.061 174.77 162.081 174.7 162.081C173.1 162.241 171.5 161.551 169.79 159.981C168.62 158.891 168.16 158.151 168.31 157.551C168.36 157.361 168.52 157.021 169.03 156.901C170.41 156.561 173.83 158.011 175.22 159.541C175.53 159.881 175.75 160.291 175.86 160.721C177.16 160.111 178.55 158.731 180.18 156.451C180.34 156.231 180.65 156.171 180.88 156.331C181.1 156.491 181.16 156.801 181 157.031C179.11 159.671 177.54 161.171 175.95 161.781C175.89 162.481 175.6 163.201 175.08 163.821C174.57 164.431 173.83 164.951 172.9 165.231C173 165.681 172.9 166.161 172.62 166.621C171.78 167.981 169.36 169.041 166.7 169.041ZM165.81 162.101C166.15 162.351 166.63 162.681 167.32 163.111C168.68 163.961 169.89 164.351 170.92 164.431C169.26 163.401 167.1 162.491 165.81 162.101ZM169.3 157.851C169.36 158.011 169.58 158.421 170.47 159.241C171.96 160.611 173.31 161.231 174.6 161.081C174.71 161.071 174.81 161.051 174.92 161.031C174.85 160.731 174.7 160.451 174.49 160.201C173.08 158.661 169.99 157.681 169.31 157.841L169.3 157.851Z" fill="#263238"/>
<path d="M179.94 167.67L164.36 170.5L150.21 93.29L120.15 98.75L71.16 185.75L76.42 214.46L139.26 203.05L143.56 226.53L173.62 221.07L169.32 197.59L184.9 194.76L179.94 167.68V167.67ZM101.09 181.99L127.05 136.42L134.29 175.96L101.09 181.99Z" fill="#407BFF"/>
<path d="M305.43 88.0403C304.85 82.7103 303.78 77.9703 302.23 73.8203C300.68 69.6803 298.35 65.6103 295.24 61.6303C292.13 57.6503 287.89 54.1903 282.54 51.2603C277.18 48.3303 270.11 46.2903 261.32 45.1503C243.03 42.7703 228.77 46.0103 218.54 54.8903C208.31 63.7703 201.58 80.7703 198.34 105.9C197.02 116.12 196.7 125.57 197.36 134.24C198.02 142.92 199.62 149.89 202.14 155.17C205.59 162.59 210.47 168.51 216.79 172.94C223.1 177.37 231.75 180.3 242.74 181.73C262.34 184.28 276.86 180.52 286.31 170.44C295.76 160.36 302.03 143.33 305.12 119.34C306.5 108.64 306.6 98.2003 305.44 88.0203L305.43 88.0403Z" fill="#407BFF"/>
<path d="M251.77 171.48C249.37 171.4 246.81 171.18 244.16 170.84C235.01 169.65 227.92 167.33 223.11 163.95C218.36 160.62 214.76 156.23 212.12 150.54L212.07 150.44C210.15 146.42 208.89 140.69 208.34 133.41C207.73 125.52 208.04 116.74 209.26 107.31C212.83 79.5905 220.2 68.0205 225.76 63.2005C232.24 57.5805 240.98 55.0405 252.49 55.4305C254.85 55.5105 257.35 55.7205 259.91 56.0605C267.3 57.0205 273.14 58.6605 277.28 60.9205C281.29 63.1105 284.42 65.6305 286.59 68.4105C288.99 71.4905 290.79 74.6005 291.94 77.6805C293.16 80.9505 294.03 84.8405 294.51 89.2405C295.58 98.5505 295.47 108.19 294.22 117.96C291.45 139.5 286.09 154.63 278.3 162.94C272.52 169.11 263.85 171.9 251.79 171.49L251.77 171.48Z" fill="#263238"/>
<path d="M271.34 88.3301L271.47 84.5401L269.14 83.7801C269.04 82.4901 268.83 81.2101 268.52 79.9801L270.49 78.5301L269.15 74.9701L266.71 75.1701C266.13 74.0201 265.45 72.9301 264.68 71.9001L265.94 69.7901L263.34 67.0201L261.16 68.1401C260.18 67.3101 259.14 66.5501 258.04 65.8801L258.39 63.4601L254.93 61.8901L253.35 63.7501C252.14 63.3601 250.89 63.0701 249.6 62.8701L249.01 60.5001L245.21 60.3701L244.46 62.7001C243.16 62.8101 241.89 63.0101 240.66 63.3201L239.2 61.3601L235.64 62.6901L235.84 65.1301C234.69 65.7201 233.6 66.4001 232.57 67.1701L230.47 65.9101L227.69 68.5001L228.81 70.6901C227.98 71.6601 227.22 72.7101 226.56 73.8101L224.14 73.4501L222.56 76.9101L224.43 78.4901C224.04 79.7001 223.73 80.9601 223.55 82.2401L221.17 82.8401L221.04 86.6301L223.38 87.3901C223.48 88.6901 223.69 89.9601 224 91.1901L222.03 92.6401L223.37 96.2001L225.81 96.0001C226.39 97.1501 227.07 98.2401 227.84 99.2701L226.58 101.38L229.18 104.15L231.36 103.03C232.33 103.86 233.38 104.62 234.48 105.29L234.12 107.71L237.58 109.28L239.17 107.42C240.38 107.81 241.63 108.1 242.92 108.3L243.51 110.67L247.31 110.8L248.06 108.47C249.36 108.36 250.63 108.16 251.86 107.85L253.31 109.81L256.87 108.48L256.68 106.04C257.83 105.45 258.92 104.77 259.95 104L262.05 105.26L264.83 102.67L263.71 100.48C264.54 99.5101 265.3 98.4601 265.96 97.3601L268.38 97.7201L269.96 94.2601L268.09 92.6801C268.48 91.4701 268.78 90.2201 268.97 88.9301L271.34 88.3301ZM245.74 100.6C237.44 100.32 230.95 93.3601 231.23 85.0601C231.51 76.7501 238.47 70.2601 246.77 70.5401C255.07 70.8201 261.56 77.7801 261.28 86.0901C261 94.3901 254.04 100.88 245.74 100.6Z" fill="#407BFF"/>
<path opacity="0.3" d="M287.12 157.91L287.39 155.36L285.86 154.73C285.86 153.85 285.78 152.98 285.63 152.14L287.03 151.25L286.32 148.78H284.66C284.32 147.99 283.93 147.21 283.46 146.48L284.41 145.12L282.8 143.12L281.27 143.76C280.66 143.15 280 142.59 279.28 142.09L279.65 140.46L277.4 139.22L276.22 140.41C275.41 140.07 274.58 139.82 273.74 139.62L273.46 137.98L270.91 137.69L270.28 139.22C269.4 139.22 268.54 139.31 267.69 139.46L266.8 138.05L264.33 138.77V140.43C263.55 140.77 262.77 141.16 262.03 141.63L260.67 140.67L258.67 142.28L259.31 143.81C258.72 144.42 258.14 145.08 257.64 145.8L256.03 145.44L254.79 147.69L255.97 148.85C255.64 149.67 255.38 150.49 255.18 151.34L253.54 151.61L253.27 154.16L254.8 154.8C254.8 155.67 254.88 156.53 255.03 157.38L253.62 158.27L254.34 160.74H256C256.34 161.53 256.73 162.31 257.2 163.04L256.24 164.4L257.84 166.41L259.38 165.76C259.99 166.37 260.65 166.93 261.37 167.43L261 169.06L263.25 170.3L264.43 169.12C265.24 169.45 266.07 169.7 266.91 169.9L267.19 171.54L269.74 171.83L270.37 170.29C271.24 170.29 272.11 170.2 272.96 170.05L273.85 171.46L276.31 170.74V169.08C277.1 168.74 277.88 168.35 278.62 167.88L279.97 168.84L281.98 167.24L281.33 165.71C281.94 165.1 282.5 164.44 283.01 163.72L284.62 164.08L285.86 161.83L284.68 160.67C285.01 159.85 285.26 159.03 285.46 158.19L287.11 157.91H287.12ZM274.25 156.92C273.06 159.08 270.35 159.88 268.19 158.69C266.03 157.5 265.25 154.79 266.43 152.63C267.62 150.47 270.32 149.69 272.48 150.87C274.64 152.06 275.44 154.76 274.25 156.92Z" fill="#407BFF"/>
<path d="M301.29 114.701L298.31 112.641C298.02 111.561 297.61 110.511 297.11 109.541L297.87 106.541L293.55 101.911L290.51 102.471C289.57 101.911 288.56 101.431 287.5 101.061L285.65 97.9407L279.32 97.7207L277.26 100.701C277.26 100.701 277.26 100.701 277.25 100.701C276.17 100.991 275.13 101.401 274.15 101.901L271.15 101.141L266.52 105.461L267.08 108.501C266.51 109.451 266.04 110.471 265.67 111.521L262.55 113.371L262.33 119.701L265.31 121.761C265.6 122.851 266 123.891 266.51 124.881L265.75 127.871L270.07 132.501L273.09 131.951C274.04 132.511 275.06 132.991 276.13 133.361L277.98 136.471L284.31 136.691L286.37 133.711C287.46 133.421 288.51 133.011 289.5 132.511L292.48 133.271L297.11 128.951L296.55 125.911C297.12 124.961 297.59 123.941 297.96 122.881L301.08 121.031L301.3 114.701H301.29ZM281.56 124.321C277.62 124.191 274.55 120.881 274.68 116.961C274.81 113.021 278.11 109.951 282.04 110.081C285.98 110.211 289.05 113.511 288.92 117.441C288.79 121.361 285.49 124.451 281.56 124.321Z" fill="white"/>
<path d="M323.04 64.1706L323.56 62.9106C323.93 62.7206 324.29 62.4806 324.61 62.2306L325.77 62.2706L327.13 60.3206L326.69 59.2506C326.82 58.8606 326.92 58.4506 326.97 58.0306L327.97 57.1106L327.55 54.7706L326.29 54.2506C326.1 53.8806 325.87 53.5306 325.61 53.2106L325.65 52.0506L323.7 50.6906L322.63 51.1306C322.23 50.9906 321.83 50.9006 321.41 50.8506L320.49 49.8506L318.15 50.2706L317.63 51.5306C317.25 51.7206 316.9 51.9506 316.58 52.2106L315.42 52.1706L314.06 54.1206L314.5 55.1906C314.37 55.5806 314.27 55.9906 314.22 56.4206L313.22 57.3406L313.64 59.6806L314.9 60.2006C315.09 60.5806 315.33 60.9306 315.59 61.2506L315.55 62.4006L317.5 63.7606L318.57 63.3206C318.97 63.4606 319.37 63.5506 319.79 63.6006L320.72 64.6006L323.06 64.1806L323.04 64.1706ZM317.95 57.6806C317.69 56.2206 318.66 54.8406 320.11 54.5806C321.57 54.3206 322.95 55.2906 323.21 56.7406C323.47 58.1906 322.5 59.5806 321.05 59.8406C319.6 60.1006 318.21 59.1306 317.95 57.6806Z" fill="#407BFF"/>
<path d="M295.61 57.5401L294.85 56.9001C296.18 55.3301 298.06 53.3401 300.86 51.8701L301.32 52.7601C298.34 54.3201 296.43 56.5801 295.61 57.5501V57.5401Z" fill="#407BFF"/>
<path d="M303.59 51.85L303.2 50.93C306.98 49.31 310.93 48.68 314.94 49.05L314.85 50.05C311.01 49.68 307.23 50.3 303.6 51.85H303.59Z" fill="#407BFF"/>
<path d="M301.7 58.7703L300.87 58.2103C302.92 55.1903 306.98 52.5703 310.74 51.8203L310.93 52.8003C307.41 53.5003 303.61 55.9503 301.69 58.7703H301.7Z" fill="#407BFF"/>
<path d="M235.34 155C235.21 155 235.08 154.95 234.98 154.85L232.88 152.69C231.81 152.59 230.76 152.39 229.73 152.1L226.46 153.54C226.3 153.61 226.12 153.59 225.98 153.5L220.5 149.87C220.36 149.78 220.27 149.62 220.28 149.45L220.33 145.89C219.66 145.06 219.07 144.16 218.56 143.21L215.75 142.12C215.59 142.06 215.47 141.92 215.44 141.75L214.13 135.31C214.1 135.14 214.15 134.97 214.27 134.85L216.43 132.75C216.53 131.69 216.73 130.63 217.01 129.6L215.57 126.34C215.5 126.18 215.52 126 215.61 125.86L219.24 120.38C219.33 120.24 219.47 120.15 219.66 120.16L223.22 120.21C224.06 119.54 224.96 118.95 225.9 118.45L226.99 115.64C227.05 115.48 227.19 115.36 227.36 115.33L233.8 114.02C233.97 113.99 234.14 114.04 234.26 114.16L236.35 116.32C237.41 116.42 238.47 116.62 239.5 116.9L242.76 115.46C242.92 115.39 243.1 115.41 243.24 115.5L248.72 119.13C248.86 119.22 248.95 119.38 248.94 119.55L248.89 123.12C249.56 123.95 250.15 124.85 250.65 125.79L253.46 126.88C253.62 126.94 253.74 127.08 253.77 127.25L255.08 133.69C255.11 133.86 255.06 134.03 254.94 134.15L252.78 136.25C252.68 137.3 252.48 138.36 252.19 139.39L253.63 142.66C253.7 142.82 253.68 143 253.59 143.14L249.96 148.61C249.87 148.75 249.72 148.82 249.54 148.83L245.98 148.78C245.15 149.44 244.25 150.03 243.3 150.54L242.21 153.35C242.15 153.51 242.01 153.63 241.84 153.66L235.4 154.97C235.4 154.97 235.33 154.97 235.3 154.97L235.34 155ZM229.7 151.07C229.7 151.07 229.79 151.07 229.84 151.09C230.91 151.4 232.02 151.61 233.15 151.71C233.27 151.71 233.38 151.77 233.47 151.86L235.51 153.96L241.41 152.76L242.47 150.03C242.51 149.92 242.6 149.82 242.71 149.77C243.71 149.25 244.66 148.63 245.53 147.92C245.62 147.85 245.72 147.8 245.85 147.81L249.32 147.86L252.65 142.84L251.25 139.66C251.2 139.55 251.2 139.43 251.23 139.32C251.55 138.23 251.75 137.11 251.85 136.01C251.85 135.89 251.91 135.78 252 135.69L254.1 133.65L252.9 127.75L250.17 126.69C250.05 126.65 249.96 126.56 249.9 126.45C249.38 125.45 248.76 124.51 248.05 123.64C247.97 123.55 247.93 123.43 247.94 123.31L247.99 119.84L242.97 116.51L239.79 117.91C239.68 117.96 239.56 117.96 239.45 117.93C238.37 117.61 237.25 117.41 236.13 117.31C236.01 117.31 235.9 117.25 235.81 117.16L233.78 115.06L227.88 116.26L226.82 118.99C226.78 119.1 226.69 119.2 226.58 119.25C225.58 119.77 224.64 120.39 223.76 121.1C223.67 121.17 223.55 121.23 223.43 121.21L219.96 121.16L216.63 126.18L218.03 129.36C218.09 129.5 218.09 129.65 218.02 129.79C217.74 130.79 217.53 131.9 217.44 133.02C217.44 133.14 217.38 133.25 217.29 133.34L215.19 135.38L216.39 141.28L219.12 142.34C219.24 142.39 219.34 142.48 219.39 142.6C219.91 143.59 220.53 144.53 221.23 145.39C221.31 145.48 221.35 145.6 221.35 145.72L221.3 149.19L226.32 152.52L229.5 151.12C229.56 151.09 229.63 151.08 229.7 151.08V151.07ZM234.62 147.83C232.09 147.83 229.54 147.11 227.28 145.62C224.31 143.65 222.29 140.65 221.58 137.16C220.87 133.67 221.56 130.12 223.53 127.15C227.6 121.03 235.88 119.34 242 123.4C248.12 127.46 249.8 135.75 245.74 141.87C243.18 145.73 238.94 147.83 234.62 147.83ZM224.36 127.7C222.54 130.44 221.9 133.73 222.56 136.96C223.22 140.19 225.09 142.96 227.83 144.78C233.5 148.53 241.16 146.98 244.91 141.32C248.66 135.66 247.11 127.99 241.45 124.23C235.79 120.48 228.12 122.03 224.36 127.7Z" fill="white"/>
<path d="M425.83 176.701L410.14 174.581L420.52 96.7707L390.24 92.6807L316.79 160.311L312.93 189.241L376.22 197.781L373.06 221.441L403.34 225.531L406.5 201.871L422.19 203.991L425.83 176.701ZM346.41 165.981L385.17 130.651L379.85 170.491L346.41 165.981Z" fill="#407BFF"/>
<path d="M394.13 224.791C394.13 224.791 394.07 224.791 394.04 224.791C393.77 224.741 393.59 224.481 393.64 224.211L416.97 96.2808C417.02 96.0108 417.28 95.8408 417.55 95.8808C417.82 95.9308 418 96.1908 417.95 96.4608L394.62 224.391C394.58 224.631 394.37 224.801 394.13 224.801V224.791Z" fill="#263238"/>
<path d="M414.83 98.4211C414.81 98.8711 414.44 99.2311 413.98 99.2111C413.52 99.1911 413.17 98.8211 413.19 98.3611C413.21 97.9011 413.58 97.5511 414.04 97.5711C414.49 97.5911 414.85 97.9611 414.83 98.4211Z" fill="#263238"/>
<path d="M411.5 115.721C411.48 116.171 411.11 116.531 410.65 116.511C410.19 116.491 409.84 116.121 409.86 115.661C409.88 115.201 410.25 114.851 410.71 114.871C411.16 114.891 411.52 115.261 411.5 115.721Z" fill="#263238"/>
<path d="M408.17 133.021C408.15 133.471 407.78 133.831 407.32 133.811C406.86 133.791 406.51 133.421 406.53 132.961C406.55 132.501 406.92 132.151 407.38 132.171C407.83 132.191 408.19 132.561 408.17 133.021Z" fill="#263238"/>
<path d="M401.61 151.031C401.59 151.481 401.22 151.841 400.76 151.821C400.3 151.801 399.95 151.431 399.97 150.971C399.99 150.511 400.36 150.161 400.82 150.181C401.28 150.201 401.63 150.571 401.61 151.031Z" fill="#263238"/>
<path d="M401.5 167.621C401.48 168.071 401.11 168.431 400.65 168.411C400.19 168.391 399.84 168.021 399.86 167.561C399.88 167.101 400.25 166.751 400.71 166.771C401.17 166.791 401.52 167.161 401.5 167.621Z" fill="#263238"/>
<path d="M398.17 184.921C398.15 185.371 397.78 185.731 397.32 185.711C396.86 185.691 396.51 185.321 396.53 184.861C396.55 184.411 396.92 184.051 397.38 184.071C397.84 184.091 398.19 184.461 398.17 184.921Z" fill="#263238"/>
<path d="M394.84 202.221C394.82 202.671 394.45 203.031 393.99 203.011C393.53 202.991 393.18 202.621 393.2 202.161C393.22 201.701 393.59 201.351 394.05 201.371C394.51 201.391 394.86 201.761 394.84 202.221Z" fill="#263238"/>
<path d="M391.5 219.521C391.48 219.971 391.11 220.331 390.65 220.311C390.19 220.291 389.84 219.921 389.86 219.461C389.88 219.001 390.25 218.651 390.71 218.671C391.17 218.691 391.52 219.061 391.5 219.521Z" fill="#263238"/>
<path d="M400.79 151.501C400.56 151.501 400.35 151.341 400.3 151.101C400.24 150.831 400.41 150.561 400.68 150.511L403.16 149.981C403.43 149.931 403.7 150.091 403.75 150.361C403.81 150.631 403.64 150.901 403.37 150.951L400.89 151.481C400.89 151.481 400.82 151.491 400.78 151.491L400.79 151.501Z" fill="#263238"/>
<path d="M409.08 142.291C409.08 142.291 406.84 148.121 406.09 151.651C405.34 155.181 405.29 163.071 405.29 163.071" fill="#263238"/>
<path d="M405.29 163.571C405.01 163.571 404.79 163.341 404.79 163.071C404.79 162.751 404.84 155.091 405.6 151.541C406.35 148.011 408.52 142.341 408.61 142.101C408.71 141.841 409 141.721 409.26 141.811C409.52 141.911 409.65 142.201 409.55 142.461C409.53 142.521 407.32 148.291 406.58 151.751C405.85 155.191 405.79 163.001 405.79 163.071C405.79 163.351 405.56 163.571 405.29 163.571Z" fill="#263238"/>
<path d="M222.45 249.89C223.84 227.49 221.28 186.76 263.39 192.15C308.53 197.93 295.61 250.71 295.61 250.71L222.44 249.89H222.45Z" fill="#263238"/>
<path d="M251.51 236.43C261.661 236.43 269.89 228.201 269.89 218.05C269.89 207.899 261.661 199.67 251.51 199.67C241.359 199.67 233.13 207.899 233.13 218.05C233.13 228.201 241.359 236.43 251.51 236.43Z" fill="white"/>
<path d="M253.93 199.7C245.23 198.21 235.92 204.63 235 211.13L269.51 214.3C268.29 206.89 260.84 200.88 253.93 199.7Z" fill="#263238"/>
<path d="M265.58 217.59C265.33 222.39 262.72 226.16 259.73 226.01C256.74 225.86 254.53 221.84 254.78 217.03C255.03 212.23 257.64 208.46 260.63 208.61C263.62 208.76 265.83 212.78 265.58 217.59Z" fill="#263238"/>
<path d="M251.51 237.42C240.83 237.42 232.13 228.73 232.13 218.04C232.13 207.35 240.82 198.66 251.51 198.66C262.2 198.66 270.89 207.35 270.89 218.04C270.89 228.73 262.2 237.42 251.51 237.42ZM251.51 200.67C241.93 200.67 234.13 208.46 234.13 218.05C234.13 227.64 241.92 235.43 251.51 235.43C261.1 235.43 268.89 227.64 268.89 218.05C268.89 208.46 261.1 200.67 251.51 200.67Z" fill="#407BFF"/>
<path opacity="0.3" d="M290.49 249.32C290.49 249.32 290.41 249.32 290.37 249.31C290.1 249.25 289.94 248.98 290 248.71C290.03 248.58 293.22 235.02 289.91 221.31C289.85 221.04 290.01 220.77 290.28 220.71C290.54 220.65 290.82 220.81 290.88 221.08C294.25 235.03 291 248.81 290.97 248.95C290.91 249.18 290.71 249.33 290.48 249.33L290.49 249.32Z" fill="white"/>
<path opacity="0.3" d="M287.7 213.81C287.51 213.81 287.33 213.7 287.25 213.52C285.96 210.71 284.37 208.14 282.51 205.86C282.34 205.65 282.37 205.33 282.58 205.16C282.79 204.98 283.11 205.02 283.28 205.23C285.19 207.57 286.84 210.22 288.16 213.1C288.28 213.35 288.16 213.65 287.91 213.76C287.84 213.79 287.77 213.81 287.7 213.81Z" fill="white"/>
<path d="M128.73 354.97C128.61 354.97 128.48 354.97 128.36 354.97C125.6 354.89 123.42 352.59 123.5 349.83C123.58 347.07 125.85 344.94 128.64 344.97C128.67 344.97 128.7 344.97 128.74 344.97C131.63 344.97 138.58 341.46 153.12 318.54C153.9 317.31 155.18 316.48 156.62 316.27C158.06 316.06 159.53 316.49 160.62 317.45C178.56 333.09 197.57 342.83 197.76 342.93C200.22 344.18 201.2 347.19 199.95 349.65C198.7 352.11 195.69 353.1 193.23 351.85C192.47 351.47 175.86 342.97 158.43 328.7C146.24 347.02 137.2 354.97 128.73 354.97Z" fill="#263238"/>
<path d="M159.67 316.55C159.53 316.55 159.39 316.55 159.24 316.52C157.6 316.29 156.46 314.77 156.69 313.13C157.4 308.15 156.52 289.5 150.22 275C149.65 273.68 150.09 272.14 151.28 271.32C164.98 261.99 194.16 260.87 195.39 260.83C197.04 260.79 198.43 262.07 198.49 263.72C198.55 265.38 197.25 266.76 195.6 266.82C195.33 266.82 169.82 267.81 156.71 275.02C162.29 289.46 163.56 307.46 162.63 313.97C162.42 315.47 161.13 316.55 159.66 316.55H159.67Z" fill="#263238"/>
<path d="M164.71 312.66C162.71 307.95 153.72 308.49 148.44 312.52C145.62 314.68 141.8 321.16 141.4 323.51C141 325.86 142.63 327.99 145.42 327.75C148.87 327.45 153.6 322.44 153.6 322.44C150.45 325.53 154.51 327.71 160.58 323.24C163.94 320.76 166.94 317.93 164.71 312.66Z" fill="#407BFF"/>
<path d="M336.71 251.21C336.71 251.21 336.62 251.21 336.57 251.19C336.3 251.11 336.15 250.84 336.23 250.57C337.56 245.93 339.02 243.1 340.93 241.52C340.64 240.52 340.67 239.38 341.08 238.26C341.48 237.17 342.26 236.09 343.44 235.26C342.86 234.63 342.65 233.81 342.85 232.88C343.08 231.84 343.83 230.71 344.99 229.72C344.54 229.2 344.43 228.63 344.42 228.21C344.39 225.23 349.93 220.68 356.18 219.83C356.45 219.78 356.71 219.98 356.74 220.26C356.78 220.53 356.59 220.79 356.31 220.82C350.37 221.63 345.39 225.93 345.41 228.2C345.41 228.57 345.55 228.86 345.77 229.1C348.02 227.53 351.34 226.52 355.05 227.24C358.12 227.83 359.37 228.48 359.22 229.41C358.95 231.16 352.41 231.53 348.03 231C347.04 230.88 346.31 230.65 345.78 230.35C344.69 231.24 343.99 232.24 343.81 233.08C343.65 233.83 343.89 234.35 344.31 234.72C346.17 233.76 348.78 233.36 352.23 234.13C356.77 235.13 356.94 235.68 357.04 236.01C357.11 236.25 357.05 236.49 356.88 236.67C355.92 237.68 348.97 237.2 345.48 236.35C345.03 236.24 344.62 236.09 344.28 235.9C343.12 236.63 342.38 237.61 342.01 238.61C341.72 239.41 341.65 240.2 341.78 240.91C341.96 240.8 342.14 240.7 342.33 240.62C344.4 239.64 346.9 239.8 349.98 241.12C352.02 242 353.01 242.77 353.08 243.56C353.1 243.79 353.06 244.24 352.51 244.6C350.99 245.61 345.64 245.46 342.86 243.98C342.2 243.63 341.69 243.11 341.32 242.49C339.69 243.98 338.37 246.66 337.16 250.85C337.1 251.07 336.9 251.21 336.68 251.21H336.71ZM342.14 241.88C342.42 242.39 342.83 242.81 343.36 243.1C345.62 244.3 350.06 244.58 351.72 243.9C352.06 243.76 352.11 243.65 352.11 243.65C352.11 243.65 352.06 243.09 349.61 242.04C346.81 240.84 344.57 240.67 342.78 241.52C342.56 241.62 342.35 241.74 342.14 241.88ZM345.47 235.31C345.56 235.34 345.64 235.36 345.73 235.38C349.26 236.24 354.03 236.39 355.66 236.12C355.15 235.91 354.12 235.56 352.02 235.1C349.25 234.49 347.08 234.68 345.46 235.3L345.47 235.31ZM346.73 229.69C347.18 229.86 347.69 229.96 348.17 230.01C353.15 230.6 357.55 229.9 358.21 229.28C358.04 229.13 357.37 228.7 354.88 228.22C351.6 227.6 348.73 228.42 346.73 229.68V229.69Z" fill="#263238"/>
<path d="M206.53 353.3C207.19 353.09 206.97 352.45 206.23 352.45H192.69C166.91 349.72 148.9 353.38 160.25 354.24C171.6 355.1 159.45 354.92 151.16 358.06C142.87 361.2 212.81 361.99 219.18 358.06C225.05 354.44 197.4 356.23 206.53 353.3Z" fill="#263238"/>
<path d="M303.47 357.29L185.67 353.38L180.78 239.16L319.89 242.27L303.47 357.29Z" fill="#407BFF"/>
<path d="M222.45 355.1C222.19 355.1 221.97 354.9 221.95 354.64L212.51 239.92C212.49 239.64 212.69 239.4 212.97 239.38C213.25 239.36 213.49 239.56 213.51 239.84L222.95 354.56C222.97 354.84 222.77 355.08 222.49 355.1C222.48 355.1 222.46 355.1 222.45 355.1Z" fill="#263238"/>
<path d="M303.47 357.291L335.13 352.471L345.1 246.26L319.89 242.271L303.47 357.291Z" fill="#407BFF"/>
<path opacity="0.2" d="M303.47 357.291L335.13 352.471L345.1 246.26L319.89 242.271L303.47 357.291Z" fill="black"/>
<path d="M195.73 331.36L192.83 263.5C192.53 256.42 198.27 250.55 205.36 250.71L293.42 252.68C300.77 252.84 306.33 259.4 305.29 266.68L295.53 335.07C294.65 341.27 289.24 345.81 282.98 345.6L207.59 343.1C201.18 342.89 196.01 337.77 195.74 331.36H195.73Z" fill="#263238"/>
<path d="M205.25 271.54L218.87 271.97L218.76 275.48L210.23 275.21L210.15 277.82L218.06 278.07L217.95 281.43L210.04 281.18L209.94 284.42L218.72 284.7L218.6 288.43L204.73 287.99L205.25 271.54Z" fill="white"/>
<path d="M221.4 288.52L221.92 272.07L230.39 272.34C231.96 272.39 233.16 272.56 233.98 272.86C234.8 273.16 235.46 273.68 235.94 274.42C236.43 275.17 236.65 276.06 236.62 277.11C236.59 278.02 236.37 278.8 235.96 279.45C235.55 280.1 235 280.62 234.3 281.01C233.86 281.26 233.26 281.46 232.49 281.6C233.09 281.82 233.52 282.04 233.79 282.25C233.97 282.39 234.23 282.69 234.58 283.14C234.93 283.59 235.15 283.94 235.26 284.18L237.57 289.03L231.83 288.85L229.27 283.74C228.95 283.08 228.65 282.65 228.39 282.44C228.03 282.17 227.62 282.03 227.16 282.02H226.71L226.5 288.68L221.39 288.52H221.4ZM226.82 278.9L228.96 278.97C229.19 278.97 229.64 278.92 230.31 278.79C230.65 278.73 230.93 278.57 231.15 278.3C231.37 278.03 231.49 277.72 231.5 277.36C231.52 276.83 231.36 276.42 231.03 276.12C230.7 275.82 230.07 275.66 229.15 275.63L226.92 275.56L226.81 278.9H226.82Z" fill="white"/>
<path d="M239.28 289.09L239.8 272.64L248.27 272.91C249.84 272.96 251.04 273.13 251.86 273.43C252.68 273.73 253.34 274.25 253.82 274.99C254.31 275.74 254.53 276.63 254.5 277.68C254.47 278.59 254.25 279.37 253.84 280.02C253.43 280.67 252.88 281.19 252.18 281.58C251.74 281.83 251.14 282.03 250.37 282.17C250.97 282.39 251.4 282.61 251.67 282.82C251.85 282.96 252.11 283.26 252.46 283.71C252.8 284.16 253.03 284.51 253.14 284.75L255.45 289.6L249.71 289.42L247.15 284.31C246.83 283.65 246.53 283.22 246.27 283.01C245.91 282.74 245.5 282.6 245.04 282.59H244.59L244.38 289.25L239.27 289.09H239.28ZM244.7 279.47L246.84 279.54C247.07 279.54 247.52 279.49 248.19 279.36C248.53 279.3 248.81 279.14 249.03 278.87C249.25 278.6 249.37 278.29 249.38 277.93C249.4 277.4 249.24 276.99 248.91 276.69C248.58 276.39 247.95 276.23 247.03 276.2L244.8 276.13L244.69 279.47H244.7Z" fill="white"/>
<path d="M256.32 281.41C256.41 278.72 257.22 276.66 258.76 275.21C260.3 273.76 262.41 273.08 265.08 273.16C267.82 273.25 269.9 274.05 271.34 275.57C272.77 277.09 273.45 279.17 273.37 281.82C273.31 283.74 272.93 285.31 272.25 286.52C271.56 287.73 270.6 288.66 269.35 289.3C268.1 289.95 266.57 290.24 264.74 290.18C262.88 290.12 261.36 289.78 260.16 289.15C258.96 288.52 258.01 287.55 257.29 286.25C256.57 284.95 256.25 283.33 256.31 281.41H256.32ZM261.4 281.59C261.35 283.25 261.62 284.45 262.21 285.2C262.8 285.95 263.63 286.33 264.69 286.37C265.78 286.4 266.64 286.08 267.26 285.38C267.88 284.69 268.22 283.42 268.28 281.58C268.33 280.03 268.05 278.89 267.45 278.16C266.85 277.43 266.01 277.04 264.94 277.01C263.91 276.98 263.08 277.31 262.44 278.02C261.8 278.73 261.45 279.92 261.39 281.59H261.4Z" fill="white"/>
<path d="M275.91 290.25L276.43 273.8L284.9 274.07C286.47 274.12 287.67 274.29 288.49 274.59C289.31 274.89 289.97 275.41 290.45 276.15C290.94 276.9 291.16 277.79 291.13 278.84C291.1 279.75 290.88 280.53 290.47 281.18C290.06 281.83 289.51 282.35 288.81 282.74C288.37 282.99 287.77 283.19 287 283.33C287.6 283.55 288.03 283.77 288.3 283.98C288.48 284.12 288.74 284.42 289.09 284.87C289.43 285.32 289.66 285.67 289.77 285.91L292.08 290.76L286.34 290.58L283.78 285.47C283.46 284.81 283.16 284.38 282.9 284.17C282.54 283.9 282.13 283.76 281.67 283.75H281.22L281.01 290.41L275.9 290.25H275.91ZM281.33 280.63L283.47 280.7C283.7 280.7 284.15 280.65 284.82 280.52C285.16 280.46 285.44 280.3 285.66 280.03C285.88 279.76 286 279.45 286.01 279.09C286.03 278.56 285.87 278.15 285.54 277.85C285.21 277.55 284.58 277.39 283.66 277.36L281.43 277.29L281.32 280.63H281.33Z" fill="white"/>
<path d="M284 318.21C283.64 318.21 283.29 318.07 283.03 317.78L274.47 308.41L265.23 316.85C264.69 317.34 263.86 317.3 263.38 316.77L254.82 307.4L245.58 315.84C245.04 316.33 244.21 316.29 243.73 315.76L235.17 306.39L225.93 314.83C225.67 315.07 225.33 315.19 224.99 315.17C224.64 315.15 224.31 315 224.08 314.74L215.52 305.37L206.28 313.81C205.75 314.3 204.91 314.26 204.43 313.73C203.94 313.19 203.98 312.36 204.51 311.88L214.72 302.55C215.25 302.06 216.09 302.1 216.57 302.63L225.13 312L234.37 303.56C234.63 303.32 234.97 303.2 235.31 303.22C235.66 303.24 235.99 303.39 236.22 303.65L244.78 313.02L254.02 304.58C254.55 304.09 255.39 304.13 255.87 304.66L264.43 314.03L273.67 305.59C274.2 305.1 275.03 305.14 275.52 305.67L284.97 316.01C285.46 316.55 285.42 317.38 284.89 317.86C284.64 318.09 284.32 318.2 284.01 318.2L284 318.21Z" fill="white"/>
<path d="M125.75 359.71L119.49 356.73L113.91 329.56L116.94 326.23L125.75 359.71Z" fill="#407BFF"/>
<path d="M125.75 359.71L134.05 354.86L126.94 332.48L116.94 326.23L125.75 359.71Z" fill="#407BFF"/>
<path opacity="0.2" d="M125.75 359.71L134.05 354.86L126.94 332.48L116.94 326.23L125.75 359.71Z" fill="black"/>
<path d="M261.95 364.65C261.71 364.65 261.48 364.65 261.26 364.65C258.5 364.57 256.32 362.27 256.4 359.51C256.48 356.75 258.76 354.58 261.54 354.65C269.24 354.9 285.55 350.17 294.86 341.13C295.44 340.57 296.14 340.16 296.91 339.93C312.7 335.19 318.57 344.76 318.82 345.17L310.21 350.26C310.21 350.26 310.24 350.33 310.33 350.44C310.23 350.31 308 347.4 300.88 349.2C289.19 359.87 271.25 364.65 261.97 364.65H261.95Z" fill="#263238"/>
<path d="M261.39 371.3L243.18 370.15L241.75 336.58L266.22 337.49L261.39 371.3Z" fill="#407BFF"/>
<path d="M261.39 371.3L265.65 367.06L268.29 346.13L266.22 337.49L261.39 371.3Z" fill="#407BFF"/>
<path opacity="0.2" d="M261.39 371.3L265.65 367.06L268.29 346.13L266.22 337.49L261.39 371.3Z" fill="black"/>
<path d="M366.91 358.58C366.28 358.58 365.64 358.38 365.1 357.97C354.71 350.07 340.65 336.04 335.26 322.51C335.18 322.31 335.12 322.11 335.09 321.9C332.46 306.27 329.95 273.36 329.84 271.97C329.71 270.32 330.95 268.88 332.6 268.75C334.25 268.63 335.69 269.86 335.82 271.51C335.85 271.85 338.38 305.08 340.95 320.58C346.33 333.74 360.91 347.25 368.73 353.19C370.05 354.19 370.31 356.07 369.3 357.39C368.71 358.17 367.81 358.57 366.91 358.57V358.58Z" fill="#263238"/>
<path d="M380.78 360.1C378.46 360.1 375.83 359.05 372.97 356.98C371.63 356.01 371.33 354.13 372.3 352.79C373.27 351.45 375.15 351.15 376.49 352.12C378.97 353.91 380.32 354.11 380.79 354.11C382.45 354.11 383.79 355.45 383.79 357.11C383.79 358.77 382.45 360.11 380.79 360.11L380.78 360.1Z" fill="#263238"/>
<path d="M373.8 356.891C377.01 347.351 390.17 349.241 394.7 350.651C399.23 352.071 403.31 353.851 405.77 355.451C408.22 357.051 408.26 359.741 404.99 361.271C400.95 363.161 390.83 361.481 390.83 361.481C396.07 363.771 390.82 367.451 381.62 363.841C378.63 362.661 372.66 360.381 373.79 356.881L373.8 356.891Z" fill="#407BFF"/>
<path d="M341.86 276.08C340.67 284.18 333.96 290.16 328.5 289.35C323.04 288.55 322.82 281.31 324.01 273.21C325.2 265.11 327.36 259.21 332.82 260.01C338.28 260.81 343.06 267.97 341.86 276.07V276.08Z" fill="#263238"/>
<path d="M209.88 243.741C210.333 243.741 210.7 243.373 210.7 242.921C210.7 242.468 210.333 242.101 209.88 242.101C209.427 242.101 209.06 242.468 209.06 242.921C209.06 243.373 209.427 243.741 209.88 243.741Z" fill="#263238"/>
<path d="M218.21 248.83C218.21 249.28 217.84 249.65 217.39 249.65C216.94 249.65 216.57 249.28 216.57 248.83C216.57 248.38 216.94 248.01 217.39 248.01C217.84 248.01 218.21 248.38 218.21 248.83Z" fill="#263238"/>
<path d="M219.12 345.73C219.12 346.18 218.75 346.55 218.3 346.55C217.85 346.55 217.48 346.18 217.48 345.73C217.48 345.28 217.85 344.91 218.3 344.91C218.75 344.91 219.12 345.28 219.12 345.73Z" fill="#263238"/>
<path d="M226.64 351.631C226.64 352.081 226.27 352.451 225.82 352.451C225.37 352.451 225 352.081 225 351.631C225 351.181 225.37 350.811 225.82 350.811C226.27 350.811 226.64 351.181 226.64 351.631Z" fill="#263238"/>
<path d="M82.51 361.47C80.13 361.47 76.91 360.03 75.18 357.52C75.02 357.29 75.08 356.98 75.31 356.82C75.54 356.66 75.85 356.72 76.01 356.95C77.88 359.64 81.99 361.08 83.82 360.23C84.01 360.14 84.17 360.03 84.29 359.89C82.66 359.14 81.17 357.66 80.76 355.41C80.53 354.14 80.35 352.43 81.4 352.19C82.83 351.87 84.71 355.34 85.43 357.97C85.56 358.46 85.61 358.91 85.56 359.31C86.19 359.48 86.81 359.53 87.35 359.45C87.78 359.39 88.4 359.21 88.72 358.7C87.51 357.88 86.69 356.43 86.42 354.51C86.03 351.78 86.32 351.3 86.63 351.07C86.83 350.92 87.08 350.89 87.32 350.99C88.39 351.45 89.69 355.32 89.93 357.52C89.96 357.76 89.96 357.99 89.93 358.21C90.34 358.37 90.79 358.46 91.28 358.47C92.15 358.52 93 358.24 93.69 357.84C93.55 357.75 93.41 357.65 93.29 357.54C92.25 356.65 91.83 355.24 92.01 353.21C92.15 351.64 92.5 350.79 93.13 350.52C93.35 350.42 93.8 350.33 94.34 350.76C95.42 351.62 96.43 354.36 96.07 356.32C95.99 356.73 95.82 357.11 95.57 357.47C97.4 357.79 99.99 357.27 102.21 356.72C102.48 356.65 102.75 356.82 102.82 357.09C102.89 357.36 102.72 357.63 102.45 357.7C99.74 358.37 96.82 358.91 94.76 358.32C93.84 359.05 92.55 359.49 91.26 359.48C90.67 359.47 90.12 359.36 89.62 359.17C89.23 359.84 88.49 360.29 87.5 360.44C86.84 360.54 86.05 360.48 85.26 360.25C85.03 360.63 84.7 360.93 84.25 361.14C83.77 361.36 83.18 361.47 82.53 361.47H82.51ZM81.65 353.19C81.59 353.34 81.49 353.85 81.73 355.23C82.06 357.07 83.25 358.29 84.57 358.94C84.57 358.73 84.52 358.49 84.45 358.23C83.66 355.37 82.17 353.4 81.64 353.19H81.65ZM87.22 352.32C87.22 352.7 87.25 353.33 87.4 354.38C87.6 355.81 88.13 356.9 88.92 357.6C88.69 355.59 87.8 353.27 87.22 352.32ZM93.51 351.45C93.51 351.45 93.13 351.64 92.99 353.31C92.84 354.99 93.15 356.13 93.92 356.79C94.1 356.94 94.3 357.07 94.52 357.17C94.8 356.86 95 356.51 95.06 356.14C95.33 354.69 94.64 352.57 93.86 351.71C93.66 351.49 93.53 351.44 93.5 351.44L93.51 351.45Z" fill="#263238"/>
<path d="M228.87 369.031L231.58 364.331L228.87 359.631H225.97L227.61 364.331L225.97 369.031H228.87Z" fill="#263238"/>
<path d="M226.16 366.781C224.81 366.781 223.71 365.681 223.71 364.331C223.71 362.981 224.81 361.891 226.16 361.891L221.55 360.971L220.33 364.691L222.39 367.831L226.16 366.781Z" fill="#263238"/>
<path d="M226.56 359.631H221.13L218.42 364.331L221.13 369.031H226.56L229.27 364.331L226.56 359.631ZM223.85 366.781C222.5 366.781 221.4 365.681 221.4 364.331C221.4 362.981 222.5 361.891 223.85 361.891C225.2 361.891 226.29 362.981 226.29 364.331C226.29 365.681 225.2 366.781 223.85 366.781Z" fill="#407BFF"/>
<path d="M417.89 359.31L415.88 355.82L417.89 352.33H420.04L418.83 355.82L420.04 359.31H417.89Z" fill="#407BFF"/>
<path d="M419.9 357.64C420.9 357.64 421.72 356.82 421.72 355.82C421.72 354.82 420.9 354.01 419.9 354.01L423.32 353.33L424.23 356.09L422.7 358.42L419.9 357.64Z" fill="#407BFF"/>
<path d="M419.61 352.33H423.64L425.65 355.82L423.64 359.31H419.61L417.6 355.82L419.61 352.33ZM421.62 357.64C422.62 357.64 423.44 356.82 423.44 355.82C423.44 354.82 422.62 354.01 421.62 354.01C420.62 354.01 419.81 354.82 419.81 355.82C419.81 356.82 420.62 357.64 421.62 357.64Z" fill="#263238"/>
<path d="M342.95 363.95H347.47C348.65 363.95 349.61 362.99 349.61 361.81C349.61 360.63 348.65 359.67 347.47 359.67H342.95C341.77 359.67 340.81 360.63 340.81 361.81C340.81 362.99 341.77 363.95 342.95 363.95Z" fill="#263238"/>
<path d="M335.73 359.911C336.85 357.541 339.55 356.471 341.77 357.521C343.99 358.571 344.89 361.331 343.77 363.701C342.65 366.071 339.95 367.141 337.73 366.091C335.51 365.041 334.61 362.281 335.73 359.911Z" fill="#407BFF"/>
<path d="M336.958 366.083L338.198 366.667L342.504 357.531L341.265 356.947L336.958 366.083Z" fill="#263238"/>
</g>
<defs>
<clipPath id="clip0_93_5">
<rect width="500" height="372.61" fill="white"/>
</clipPath>
</defs>
</svg>
